<?xml version="1.0" encoding="UTF-8"?>
<svg width="50px" height="50px" viewBox="0 0 50 50" version="1.1" xmlns="http://www.w3.org/2000/svg" xmlns:xlink="http://www.w3.org/1999/xlink">
    <!-- Generator: Sketch 55.2 (78181) - https://sketchapp.com -->
    <title>mini_electric_badge_signet_rgb_pos</title>
    <desc>Created with Sketch.</desc>
    <g id="Page-1" stroke="none" stroke-width="1" fill="none" fill-rule="evenodd">
        <g id="Artboard" fill-rule="nonzero">
            <g id="mini_electric_badge_signet_rgb_pos">
                <path d="M25,7.22972973 C23.6486486,7.22972973 22.2972973,7.36486486 21.0135135,7.7027027 L21.0135135,12.5675676 L12.3648649,12.5675676 C9.7972973,15.2027027 7.97297297,18.6486486 7.5,22.5 L21.0135135,22.5 L21.0135135,27.2972973 L7.5,27.2972973 C8.04054054,31.1486486 9.7972973,34.5945946 12.3648649,37.2297297 L20.9459459,37.2297297 L20.9459459,42.0945946 C22.2972973,42.4324324 23.5810811,42.5675676 25,42.5675676 C34.7297297,42.5675676 42.7027027,34.6621622 42.7027027,24.8648649 C42.6351351,15.1351351 34.7297297,7.22972973 25,7.22972973 Z" id="Path" fill="#E1CA00"></path>
                <path d="M25,0 C11.2162162,0 0.0675675676,11.1486486 0.0675675676,24.9324324 C0.0675675676,38.7162162 11.2162162,49.8648649 25,49.8648649 C38.7837838,49.8648649 49.9324324,38.7162162 49.9324324,24.9324324 C49.8648649,11.1486486 38.7162162,0 25,0 Z M25,46.6216216 C13.0405405,46.6216216 3.31081081,36.8918919 3.31081081,24.9324324 C3.31081081,12.972973 13.0405405,3.24324324 25,3.24324324 C36.9594595,3.24324324 46.6891892,12.972973 46.6891892,24.9324324 C46.6891892,36.8918919 36.9594595,46.6216216 25,46.6216216 Z" id="Shape" fill="#000000"></path>
            </g>
        </g>
    </g>
</svg>